<mxfile host="app.diagrams.net" modified="2024-05-11T09:44:34.970Z" agent="Mozilla/5.0 (Windows NT 10.0; Win64; x64) AppleWebKit/537.36 (KHTML, like Gecko) Chrome/109.0.0.0 Safari/537.36" etag="CtYZFZvndB64d5l_B-Qx" version="24.3.1" type="github">
  <diagram name="第 1 页" id="uSDm-quoGW1dwnuvjZuZ">
    <mxGraphModel dx="1523" dy="827" grid="0" gridSize="10" guides="1" tooltips="1" connect="1" arrows="1" fold="1" page="0" pageScale="1" pageWidth="827" pageHeight="1169" math="0" shadow="0">
      <root>
        <mxCell id="0" />
        <mxCell id="1" parent="0" />
        <mxCell id="7oK-_IyVXDtOq_eO2AqW-11" style="edgeStyle=orthogonalEdgeStyle;rounded=0;orthogonalLoop=1;jettySize=auto;html=1;exitX=0.5;exitY=1;exitDx=0;exitDy=0;entryX=0.5;entryY=0;entryDx=0;entryDy=0;" edge="1" parent="1" source="7oK-_IyVXDtOq_eO2AqW-1" target="7oK-_IyVXDtOq_eO2AqW-3">
          <mxGeometry relative="1" as="geometry" />
        </mxCell>
        <mxCell id="7oK-_IyVXDtOq_eO2AqW-1" value="等待" style="rounded=1;whiteSpace=wrap;html=1;" vertex="1" parent="1">
          <mxGeometry x="399" y="380" width="120" height="60" as="geometry" />
        </mxCell>
        <mxCell id="7oK-_IyVXDtOq_eO2AqW-2" value="随星球野外一同加载" style="text;html=1;align=center;verticalAlign=middle;whiteSpace=wrap;rounded=0;" vertex="1" parent="1">
          <mxGeometry x="564" y="289" width="122" height="30" as="geometry" />
        </mxCell>
        <mxCell id="7oK-_IyVXDtOq_eO2AqW-12" style="edgeStyle=orthogonalEdgeStyle;rounded=0;orthogonalLoop=1;jettySize=auto;html=1;exitX=0;exitY=0.5;exitDx=0;exitDy=0;entryX=0;entryY=0.5;entryDx=0;entryDy=0;" edge="1" parent="1" source="7oK-_IyVXDtOq_eO2AqW-3" target="7oK-_IyVXDtOq_eO2AqW-1">
          <mxGeometry relative="1" as="geometry">
            <Array as="points">
              <mxPoint x="369" y="522" />
              <mxPoint x="369" y="410" />
            </Array>
          </mxGeometry>
        </mxCell>
        <mxCell id="7oK-_IyVXDtOq_eO2AqW-14" value="N" style="edgeLabel;html=1;align=center;verticalAlign=middle;resizable=0;points=[];" vertex="1" connectable="0" parent="7oK-_IyVXDtOq_eO2AqW-12">
          <mxGeometry x="0.0724" y="2" relative="1" as="geometry">
            <mxPoint as="offset" />
          </mxGeometry>
        </mxCell>
        <mxCell id="7oK-_IyVXDtOq_eO2AqW-15" style="edgeStyle=orthogonalEdgeStyle;rounded=0;orthogonalLoop=1;jettySize=auto;html=1;exitX=0.5;exitY=1;exitDx=0;exitDy=0;entryX=0.5;entryY=0;entryDx=0;entryDy=0;" edge="1" parent="1" source="7oK-_IyVXDtOq_eO2AqW-3" target="7oK-_IyVXDtOq_eO2AqW-16">
          <mxGeometry relative="1" as="geometry">
            <mxPoint x="459" y="656" as="targetPoint" />
          </mxGeometry>
        </mxCell>
        <mxCell id="7oK-_IyVXDtOq_eO2AqW-21" value="Y" style="edgeLabel;html=1;align=center;verticalAlign=middle;resizable=0;points=[];" vertex="1" connectable="0" parent="7oK-_IyVXDtOq_eO2AqW-15">
          <mxGeometry x="-0.4658" y="-3" relative="1" as="geometry">
            <mxPoint as="offset" />
          </mxGeometry>
        </mxCell>
        <mxCell id="7oK-_IyVXDtOq_eO2AqW-3" value="是否到达&lt;div&gt;开始时间&lt;/div&gt;" style="rhombus;whiteSpace=wrap;html=1;" vertex="1" parent="1">
          <mxGeometry x="394" y="482" width="130" height="80" as="geometry" />
        </mxCell>
        <mxCell id="7oK-_IyVXDtOq_eO2AqW-5" value="开始时间：&lt;div&gt;一般落地是8:02，为了避免其他参数调整，&lt;/div&gt;&lt;div&gt;需要增加一个判断，方便及时修改，&lt;/div&gt;&lt;div&gt;到达配置的开始时间之后，积水才会上升&lt;/div&gt;" style="text;html=1;align=left;verticalAlign=middle;whiteSpace=wrap;rounded=0;" vertex="1" parent="1">
          <mxGeometry x="564" y="496" width="249" height="62" as="geometry" />
        </mxCell>
        <mxCell id="7oK-_IyVXDtOq_eO2AqW-10" style="edgeStyle=orthogonalEdgeStyle;rounded=0;orthogonalLoop=1;jettySize=auto;html=1;exitX=0.5;exitY=1;exitDx=0;exitDy=0;entryX=0.5;entryY=0;entryDx=0;entryDy=0;" edge="1" parent="1" source="7oK-_IyVXDtOq_eO2AqW-9" target="7oK-_IyVXDtOq_eO2AqW-1">
          <mxGeometry relative="1" as="geometry" />
        </mxCell>
        <mxCell id="7oK-_IyVXDtOq_eO2AqW-9" value="&lt;div&gt;确认该星球为&lt;/div&gt;&lt;div&gt;洪水天气&lt;/div&gt;开始" style="ellipse;whiteSpace=wrap;html=1;" vertex="1" parent="1">
          <mxGeometry x="399" y="264" width="120" height="80" as="geometry" />
        </mxCell>
        <mxCell id="7oK-_IyVXDtOq_eO2AqW-18" style="edgeStyle=orthogonalEdgeStyle;rounded=0;orthogonalLoop=1;jettySize=auto;html=1;exitX=0.5;exitY=1;exitDx=0;exitDy=0;entryX=0.5;entryY=0;entryDx=0;entryDy=0;" edge="1" parent="1" source="7oK-_IyVXDtOq_eO2AqW-16" target="7oK-_IyVXDtOq_eO2AqW-17">
          <mxGeometry relative="1" as="geometry" />
        </mxCell>
        <mxCell id="7oK-_IyVXDtOq_eO2AqW-16" value="积水从初始点" style="rounded=1;whiteSpace=wrap;html=1;" vertex="1" parent="1">
          <mxGeometry x="399" y="629" width="120" height="60" as="geometry" />
        </mxCell>
        <mxCell id="7oK-_IyVXDtOq_eO2AqW-17" value="匀速上升至目标点" style="rounded=1;whiteSpace=wrap;html=1;" vertex="1" parent="1">
          <mxGeometry x="399" y="732" width="120" height="60" as="geometry" />
        </mxCell>
        <mxCell id="7oK-_IyVXDtOq_eO2AqW-20" value="停止上升时间：&lt;div&gt;达到该时间后，标准水位上升到目标点。&lt;div&gt;暂配置到24:00，不同星球支持配置不同时间。&lt;/div&gt;&lt;/div&gt;" style="text;html=1;align=left;verticalAlign=middle;whiteSpace=wrap;rounded=0;" vertex="1" parent="1">
          <mxGeometry x="564" y="834" width="249" height="52" as="geometry" />
        </mxCell>
        <mxCell id="7oK-_IyVXDtOq_eO2AqW-22" value="配置方式：场景中放置该BP，起点终点各一个plane即可。主要为了记录高度。&lt;div&gt;也方便策划查看效果。&lt;/div&gt;" style="text;html=1;align=center;verticalAlign=middle;whiteSpace=wrap;rounded=0;" vertex="1" parent="1">
          <mxGeometry x="564" y="685" width="249" height="52" as="geometry" />
        </mxCell>
        <mxCell id="7oK-_IyVXDtOq_eO2AqW-23" value="结束&lt;div&gt;&lt;/div&gt;" style="ellipse;whiteSpace=wrap;html=1;" vertex="1" parent="1">
          <mxGeometry x="399" y="940" width="120" height="80" as="geometry" />
        </mxCell>
        <mxCell id="7oK-_IyVXDtOq_eO2AqW-26" value="" style="edgeStyle=orthogonalEdgeStyle;rounded=0;orthogonalLoop=1;jettySize=auto;html=1;exitX=0.5;exitY=1;exitDx=0;exitDy=0;entryX=0.5;entryY=0;entryDx=0;entryDy=0;" edge="1" parent="1" source="7oK-_IyVXDtOq_eO2AqW-17" target="7oK-_IyVXDtOq_eO2AqW-25">
          <mxGeometry relative="1" as="geometry">
            <mxPoint x="459" y="792" as="sourcePoint" />
            <mxPoint x="459" y="935" as="targetPoint" />
          </mxGeometry>
        </mxCell>
        <mxCell id="7oK-_IyVXDtOq_eO2AqW-27" value="" style="edgeStyle=orthogonalEdgeStyle;rounded=0;orthogonalLoop=1;jettySize=auto;html=1;" edge="1" parent="1" source="7oK-_IyVXDtOq_eO2AqW-25" target="7oK-_IyVXDtOq_eO2AqW-23">
          <mxGeometry relative="1" as="geometry" />
        </mxCell>
        <mxCell id="7oK-_IyVXDtOq_eO2AqW-28" value="Y" style="edgeLabel;html=1;align=center;verticalAlign=middle;resizable=0;points=[];" vertex="1" connectable="0" parent="7oK-_IyVXDtOq_eO2AqW-27">
          <mxGeometry x="-0.558" y="1" relative="1" as="geometry">
            <mxPoint as="offset" />
          </mxGeometry>
        </mxCell>
        <mxCell id="7oK-_IyVXDtOq_eO2AqW-29" style="edgeStyle=orthogonalEdgeStyle;rounded=0;orthogonalLoop=1;jettySize=auto;html=1;exitX=0;exitY=0.5;exitDx=0;exitDy=0;entryX=0;entryY=0.5;entryDx=0;entryDy=0;" edge="1" parent="1" source="7oK-_IyVXDtOq_eO2AqW-25" target="7oK-_IyVXDtOq_eO2AqW-17">
          <mxGeometry relative="1" as="geometry" />
        </mxCell>
        <mxCell id="7oK-_IyVXDtOq_eO2AqW-30" value="N" style="edgeLabel;html=1;align=center;verticalAlign=middle;resizable=0;points=[];" vertex="1" connectable="0" parent="7oK-_IyVXDtOq_eO2AqW-29">
          <mxGeometry x="-0.1806" y="-1" relative="1" as="geometry">
            <mxPoint as="offset" />
          </mxGeometry>
        </mxCell>
        <mxCell id="7oK-_IyVXDtOq_eO2AqW-25" value="是否到达&lt;div&gt;开始时间&lt;/div&gt;" style="rhombus;whiteSpace=wrap;html=1;" vertex="1" parent="1">
          <mxGeometry x="394" y="820" width="130" height="80" as="geometry" />
        </mxCell>
      </root>
    </mxGraphModel>
  </diagram>
</mxfile>
